# xmcd CD database file
#
# Track frame offsets:
#	150
#	21878
#	45165
#	70135
#	91753
#	112648
#	134023
#	158043
#	182308
#	202686
#	227161
#	249332
#	271853
#
# Disc length: 3874 seconds
#
# Revision: 5
# Processed by: cddbd v1.4PL0 Copyright (c) Steve Scherf et al.
# Submitted via: CDex 1.50beta10
#
DISCID=920f200d
DTITLE=Hikaru Utada - Distance
DYEAR=2001
DGENRE=New Age
TTITLE0=Wait and See -risk-
TTITLE1=Can You Keep A Secret?
TTITLE2=DISTANCE
TTITLE3=Sunglass
TTITLE4=Drama
TTITLE5=Eternally
TTITLE6=Addicted To You [UP-IN-HEAVEN MIX]
TTITLE7=For You
TTITLE8=Kettobase!
TTITLE9=Parody
TTITLE10=Time Limit
TTITLE11=Kotobani naranai kimochi
TTITLE12=HAYATOCHI-REMIX (Bonus Track)
EXTD=YEAR: 2001
EXTT0=
EXTT1=
EXTT2=
EXTT3=
EXTT4=
EXTT5=
EXTT6=
EXTT7=
EXTT8=
EXTT9=
EXTT10=
EXTT11=
EXTT12=
PLAYORDER=
